<svg width="25" height="28" fill="none" xmlns="http://www.w3.org/2000/svg"><path fill-rule="evenodd" clip-rule="evenodd" d="M13.55 2.233C14.538 1.026 16.233.1 17.683 0c.243 1.649-.428 3.264-1.316 4.406-.949 1.226-2.586 2.175-4.17 2.126-.29-1.58.452-3.205 1.353-4.3Zm4.466 4.3c1.93 0 3.974 1.044 5.429 2.843-4.768 2.595-3.996 9.352.822 11.162-.663 1.457-.98 2.107-1.834 3.398-1.192 1.8-2.87 4.044-4.953 4.06-.856.01-1.418-.246-2.023-.522-.702-.32-1.463-.666-2.81-.658-1.34.006-2.113.348-2.824.663-.621.275-1.196.529-2.059.52-2.08-.017-3.672-2.042-4.863-3.842C-.43 19.124-.78 13.216 1.274 10.073c1.462-2.231 3.766-3.536 5.93-3.536 1.154 0 2.084.329 2.97.642.806.285 1.577.558 2.446.558.805 0 1.467-.249 2.189-.52.866-.326 1.818-.684 3.208-.684Z" fill="#495567"/></svg>