<svg width="24" height="28" fill="none" xmlns="http://www.w3.org/2000/svg"><path fill-rule="evenodd" clip-rule="evenodd" d="M1.352.237a2.348 2.348 0 0 1 2.253.108l13.872 8.078-3.973 3.992L1.352.237ZM0 2.421c0-.371.082-.732.236-1.057L12.385 13.54.238 25.744A2.381 2.381 0 0 1 0 24.697V2.421Zm13.506 12.24L1.373 26.852c.322.15.665.215 1.007.215.422 0 .844-.101 1.225-.33l13.875-8.09-3.974-3.984Zm9.24-3.17a2.36 2.36 0 0 1 1.159 2.042c0 .838-.428 1.598-1.145 2.033l-3.863 2.253-4.273-4.281 4.27-4.29 3.852 2.243Z" fill="#495567"/></svg>