<svg width="43" height="32" fill="none" xmlns="http://www.w3.org/2000/svg"><path fill-rule="evenodd" clip-rule="evenodd" d="m34.54 16.378-1.928-8.706c.52-.07.979-.335 1.301-.718.381.238.83.376 1.312.376h1.654c.456 0 .826-.37.826-.827V3.196a.827.827 0 0 0-.826-.827h-1.654c-.496 0-.958.146-1.346.398a2.06 2.06 0 0 0-1.546-.699h-4.88c-.878 0-1.628.55-1.927 1.323h-1.96c-1.185 0-2.15.965-2.15 2.15 0 1.186.965 2.15 2.15 2.15h4.256v1.667a.827.827 0 1 0 1.654 0V7.69h1.447l2.075 9.378-3.928 6.997a2.429 2.429 0 0 1-2.113 1.235h-9.806c-.411-3.443-3.346-6.121-6.898-6.121a6.879 6.879 0 0 0-4.287 1.48l-.005.004A6.905 6.905 0 0 0 3.354 25.3H1.656c.108-5.944 4.977-10.747 10.946-10.747h5.866c.463 0 .84.377.84.84v7.426c0 .457.37.827.826.827h4.4a4.932 4.932 0 0 0 4.932-4.926l.004-2.747a.827.827 0 0 0-1.654-.003l-.004 2.748a3.279 3.279 0 0 1-3.278 3.274h-3.573v-6.599c0-.423-.106-.823-.293-1.172a2.482 2.482 0 0 0 1.244-2.15 2.484 2.484 0 0 0-2.48-2.48h-3.019c-.29 0-.568.05-.827.142V2.48A2.484 2.484 0 0 0 13.106 0H7.77C3.904 0 .69 2.84.098 6.542a.827.827 0 0 0-.039.25v.007a7.81 7.81 0 0 0-.06.972v4.302c.001 1.242.919 2.273 2.111 2.452l1.832 1.832A12.568 12.568 0 0 0 0 25.503v.625c0 .457.37.827.827.827h4.647a.844.844 0 0 0-.017.165c0 1.2.444 2.298 1.176 3.14H.827a.827.827 0 0 0 0 1.653h9.33l.028.001.068.002a4.801 4.801 0 0 0 4.796-4.796.841.841 0 0 0-.016-.165h11.924a4.086 4.086 0 0 0 3.281-1.656h1.047a4.773 4.773 0 0 0 .815 4.961H21.377a.827.827 0 0 0 0 1.653h14.248l.096.003a4.801 4.801 0 0 0 4.796-4.796c0-.631-.125-1.249-.36-1.822h1.352c.457 0 .827-.37.827-.826 0-4.365-3.47-7.934-7.797-8.094Zm-18.127-5.132h3.018a.828.828 0 0 1 0 1.653h-3.018a.828.828 0 0 1 0-1.653ZM1.656 7.67a2.994 2.994 0 0 0-.002.101v4.302c0 .455.37.826.826.826h10.625a.828.828 0 0 0 .827-.826V2.48a.828.828 0 0 0-.827-.827H7.771a6.128 6.128 0 0 0-5.845 4.31h8.78a.827.827 0 1 1 0 1.655H1.658l-.002.05Zm2.821 6.883H6.37c-.397.227-.78.475-1.15.743l-.742-.743Zm5.808 15.708a3.145 3.145 0 0 0 3.11-3.14c0-.057.006-.113.017-.166H7.095c.01.053.016.109.016.165 0 1.7 1.358 3.089 3.047 3.14h.113l.014.001Zm-5.262-4.96a5.26 5.26 0 0 1 1.96-3.337l.007-.006a5.24 5.24 0 0 1 3.263-1.125 5.303 5.303 0 0 1 5.23 4.468H5.023ZM36.052 4.023h-.827a.828.828 0 0 0 0 1.653h.827V4.023ZM23.07 5.54c0-.273.222-.496.496-.496h1.822v.582c0 .14.014.278.04.41h-1.862a.497.497 0 0 1-.496-.496Zm4.382.496h4.881c.227 0 .411-.184.411-.41V4.133a.411.411 0 0 0-.41-.41h-4.882a.412.412 0 0 0-.41.41v1.494c0 .226.184.41.41.41ZM38.863 27.12a3.145 3.145 0 0 1-3.11 3.141h-.014l-.018-.001h-.095a3.145 3.145 0 0 1-3.047-3.14c0-.657.205-1.292.582-1.822h5.12c.377.53.582 1.165.582 1.822Zm-4.507-9.091-3.153 5.616h9.426a6.454 6.454 0 0 0-6.273-5.616Z" fill="#495567"/></svg>