<svg width="39" height="48" fill="none" xmlns="http://www.w3.org/2000/svg"><path fill-rule="evenodd" clip-rule="evenodd" d="M24.787 0H3.997A4.003 4.003 0 0 0 0 3.998v39.979a4.003 4.003 0 0 0 3.998 3.997h19.99v-1.43a18.177 18.177 0 0 1 3.063-10.12.8.8 0 0 0-.1-1.008l-5.597-5.597a2.593 2.593 0 0 1 .19-3.838 2.693 2.693 0 0 1 3.58.275l7.893 7.893 1.13-1.13-5.362-5.365V3.998A4.003 4.003 0 0 0 24.787 0Zm2.399 26.055-.931-.93a4.303 4.303 0 0 0-5.728-.38 4.193 4.193 0 0 0-.303 6.204l5.14 5.142a19.768 19.768 0 0 0-2.97 10.284H3.998a2.4 2.4 0 0 1-2.399-2.398v-2.4h19.99V39.98H1.599V6.397h25.587v19.658ZM1.599 4.797h25.587v-.8a2.4 2.4 0 0 0-2.4-2.398H3.999a2.4 2.4 0 0 0-2.399 2.399v.8ZM31.142 18.6l-1.078 1.18 4.904 4.494a5.61 5.61 0 0 1 1.812 4.127v19.573h1.6V28.401a7.215 7.215 0 0 0-2.334-5.305L31.142 18.6ZM4.797 14.393h3.199c.883 0 1.599-.715 1.599-1.599V9.595c0-.883-.716-1.6-1.6-1.6H4.798c-.883 0-1.599.717-1.599 1.6v3.198c0 .884.716 1.6 1.6 1.6Zm0-4.797h3.199v3.198H4.797V9.595Zm11.195 4.797h-3.199c-.883 0-1.599-.715-1.599-1.599V9.595c0-.883.716-1.6 1.6-1.6h3.197c.884 0 1.6.717 1.6 1.6v3.198c0 .884-.716 1.6-1.6 1.6Zm0-4.797h-3.199v3.198h3.199V9.595Zm4.797 4.797h3.198c.884 0 1.6-.715 1.6-1.599V9.595c0-.883-.716-1.6-1.6-1.6H20.79c-.883 0-1.6.717-1.6 1.6v3.198c0 .884.717 1.6 1.6 1.6Zm0-4.797h3.198v3.198H20.79V9.595ZM7.996 22.388H4.797c-.883 0-1.599-.716-1.599-1.6v-3.197c0-.884.716-1.6 1.6-1.6h3.198c.883 0 1.599.716 1.599 1.6v3.198c0 .883-.716 1.6-1.6 1.6Zm0-4.797H4.797v3.198h3.199V17.59ZM4.797 30.384h3.199c.883 0 1.599-.716 1.599-1.6v-3.198c0-.883-.716-1.599-1.6-1.599H4.798c-.883 0-1.599.716-1.599 1.6v3.198c0 .883.716 1.599 1.6 1.599Zm0-4.798h3.199v3.199H4.797v-3.199Zm11.195-3.198h-3.199c-.883 0-1.599-.716-1.599-1.6v-3.197c0-.884.716-1.6 1.6-1.6h3.197c.884 0 1.6.716 1.6 1.6v3.198c0 .883-.716 1.6-1.6 1.6Zm0-4.797h-3.199v3.198h3.199V17.59Zm4.797 4.797h3.198a1.6 1.6 0 0 0 1.6-1.6v-3.197c0-.884-.716-1.6-1.6-1.6H20.79c-.883 0-1.6.716-1.6 1.6v3.198c0 .883.717 1.6 1.6 1.6Zm0-4.797h3.198v3.198H20.79V17.59ZM15.99 30.384h-3.198c-.883 0-1.599-.716-1.599-1.6v-3.198c0-.883.716-1.599 1.6-1.599h3.197c.884 0 1.6.716 1.6 1.6v3.198c0 .883-.716 1.599-1.6 1.599Zm0-4.798h-3.198v3.199h3.199v-3.199ZM4.797 38.38h3.199c.883 0 1.599-.716 1.599-1.6v-3.198c0-.883-.716-1.6-1.6-1.6H4.798c-.883 0-1.599.717-1.599 1.6v3.198c0 .884.716 1.6 1.6 1.6Zm0-4.798h3.199v3.198H4.797v-3.198Zm11.195 4.797h-3.199c-.883 0-1.599-.715-1.599-1.599v-3.198c0-.883.716-1.6 1.6-1.6h3.197c.884 0 1.6.717 1.6 1.6v3.198c0 .884-.716 1.6-1.6 1.6Zm0-4.797h-3.199v3.198h3.199v-3.198Zm-.8 9.595h-1.6v1.6h1.6v-1.6Z" fill="#495567"/></svg>